# xmcd CD database file
#
# Track frame offsets:
#	150
#	16114
#	33516
#	50788
#	68404
#	91571
#	108161
#	129904
#	145969
#	159477
#	180010
#	196625
#
# Disc length: 2896 seconds
#
# Revision: 0
# Processed by: cddbd v1.5.1PL0 Copyright (c) Steve Scherf et al.
# Submitted via: CDex 1.51
#
DISCID=840b4e0c
DTITLE=Rock´n Bluesy Fancky feat. Miss Tania - Paris New Orleans Variety
DYEAR=1999
DGENRE=Jazz
TTITLE0=The Flower on the shore
TTITLE1=She´s got me boogie
TTITLE2=Goin´ to Chicago
TTITLE3=Comme la lune
TTITLE4=Meetin´ Ray Charles
TTITLE5=Route 66
TTITLE6=Summer time
TTITLE7=Way down the river
TTITLE8=I love Paris
TTITLE9=Solace in
TTITLE10=Wish you´re here
TTITLE11=Jam in Paris
EXTD=YEAR: 1999
EXTT0=
EXTT1=
EXTT2=
EXTT3=
EXTT4=
EXTT5=
EXTT6=
EXTT7=
EXTT8=
EXTT9=
EXTT10=
EXTT11=
PLAYORDER=
